<?xml version="1.0" encoding="UTF-8" standalone="no"?>
<svg width="24px" height="24px" viewBox="0 0 24 24" version="1.1" xmlns="http://www.w3.org/2000/svg" xmlns:xlink="http://www.w3.org/1999/xlink">
    <!-- Generator: Sketch 49.1 (51147) - http://www.bohemiancoding.com/sketch -->
    <title>ic_forward_30_black_24px</title>
    <desc>Created with Sketch.</desc>
    <defs></defs>
    <g id="ic_forward_30_black_24px" stroke="none" stroke-width="1" fill="none" fill-rule="evenodd">
        <path d="M9.6,14.5 L10,14.5 C10.2,14.5 10.4,14.4 10.5,14.3 C10.6,14.2 10.7,14.1 10.7,13.9 L10.7,13.7 C10.7,13.7 10.6,13.6 10.6,13.5 C10.6,13.4 10.5,13.4 10.4,13.4 L9.9,13.4 C9.9,13.4 9.8,13.5 9.7,13.5 C9.6,13.5 9.6,13.6 9.6,13.7 L9.6,13.9 L8.6,13.9 C8.6,13.7 8.6,13.6 8.7,13.4 C8.8,13.2 8.9,13.1 9,13 C9.1,12.9 9.3,12.8 9.4,12.8 C9.5,12.8 9.8,12.7 9.9,12.7 C10.1,12.7 10.3,12.7 10.5,12.8 C10.7,12.9 10.8,12.9 11,13 C11.2,13.1 11.2,13.2 11.3,13.4 C11.4,13.6 11.4,13.7 11.4,13.9 L11.4,14.2 C11.4,14.2 11.3,14.4 11.3,14.5 C11.3,14.6 11.2,14.7 11.1,14.7 C11,14.7 10.9,14.8 10.8,14.9 C11,15 11.2,15.1 11.3,15.3 C11.4,15.5 11.5,15.7 11.5,15.9 C11.5,16.1 11.5,16.3 11.4,16.4 C11.3,16.5 11.2,16.7 11.1,16.8 C11,16.9 10.8,17 10.6,17 C10.4,17 10.2,17.1 10,17.1 C9.8,17.1 9.6,17.1 9.5,17 C9.4,16.9 9.2,16.9 9,16.8 C8.8,16.7 8.8,16.6 8.7,16.4 C8.6,16.2 8.6,16 8.6,15.8 L9.4,15.8 L9.4,16 C9.4,16 9.5,16.1 9.5,16.2 C9.5,16.3 9.6,16.3 9.7,16.3 L10.2,16.3 C10.2,16.3 10.3,16.2 10.4,16.2 C10.5,16.2 10.5,16.1 10.5,16 L10.5,15.5 C10.5,15.5 10.4,15.4 10.4,15.3 C10.4,15.2 10.3,15.2 10.2,15.2 L9.6,15.2 L9.6,14.5 Z M15.3,15.2 C15.3,15.5 15.3,15.8 15.2,16 L14.9,16.6 C14.9,16.6 14.6,16.9 14.4,16.9 C14.2,16.9 14,17 13.8,17 C13.6,17 13.4,17 13.2,16.9 C13,16.8 12.9,16.7 12.7,16.6 C12.5,16.5 12.5,16.3 12.4,16 C12.3,15.7 12.3,15.5 12.3,15.2 L12.3,14.5 C12.3,14.2 12.3,13.9 12.4,13.7 L12.7,13.1 C12.7,13.1 13,12.8 13.2,12.8 C13.4,12.8 13.6,12.7 13.8,12.7 C14,12.7 14.2,12.7 14.4,12.8 C14.6,12.9 14.7,13 14.9,13.1 C15.1,13.2 15.1,13.4 15.2,13.7 C15.3,14 15.3,14.2 15.3,14.5 L15.3,15.2 Z M14.4,14.4 L14.4,13.9 C14.4,13.9 14.3,13.7 14.3,13.6 C14.3,13.5 14.2,13.5 14.1,13.4 C14,13.3 13.9,13.3 13.8,13.3 C13.7,13.3 13.6,13.3 13.5,13.4 L13.3,13.6 C13.3,13.6 13.2,13.8 13.2,13.9 L13.2,15.9 C13.2,15.9 13.3,16.1 13.3,16.2 C13.3,16.3 13.4,16.3 13.5,16.4 C13.6,16.5 13.7,16.5 13.8,16.5 C13.9,16.5 14,16.5 14.1,16.4 L14.3,16.2 C14.3,16.2 14.4,16 14.4,15.9 L14.4,14.4 Z M4,14 C4,18.4 7.6,22 12,22 C16.4,22 20,18.4 20,14 L18,14 C18,17.3 15.3,20 12,20 C8.7,20 6,17.3 6,14 C6,10.7 8.7,8 12,8 L12,12 L17,7 L12,2 L12,6 C7.6,6 4,9.6 4,14 Z" id="Shape" fill="#79909B" fill-rule="nonzero"></path>
    </g>
</svg>