<?xml version="1.0" encoding="UTF-8" standalone="no"?>
<svg width="24px" height="24px" viewBox="0 0 24 24" version="1.1" xmlns="http://www.w3.org/2000/svg" xmlns:xlink="http://www.w3.org/1999/xlink">
    <!-- Generator: Sketch 49.1 (51147) - http://www.bohemiancoding.com/sketch -->
    <title>ic_replay_30_black_24px</title>
    <desc>Created with Sketch.</desc>
    <defs></defs>
    <g id="ic_replay_30_black_24px" stroke="none" stroke-width="1" fill="none" fill-rule="evenodd">
        <path d="M12,5 L12,1 L7,6 L12,11 L12,7 C15.3,7 18,9.7 18,13 C18,16.3 15.3,19 12,19 C8.7,19 6,16.3 6,13 L4,13 C4,17.4 7.6,21 12,21 C16.4,21 20,17.4 20,13 C20,8.6 16.4,5 12,5 Z M9.6,13.5 L10,13.5 C10.2,13.5 10.4,13.4 10.5,13.3 C10.6,13.2 10.7,13.1 10.7,12.9 L10.7,12.7 C10.7,12.7 10.6,12.6 10.6,12.5 C10.6,12.4 10.5,12.4 10.4,12.4 L9.9,12.4 C9.9,12.4 9.8,12.5 9.7,12.5 C9.6,12.5 9.6,12.6 9.6,12.7 L9.6,12.9 L8.6,12.9 C8.6,12.7 8.6,12.6 8.7,12.4 C8.8,12.2 8.9,12.1 9,12 C9.1,11.9 9.3,11.8 9.4,11.8 C9.5,11.8 9.8,11.7 9.9,11.7 C10.1,11.7 10.3,11.7 10.5,11.8 C10.7,11.9 10.8,11.9 11,12 C11.2,12.1 11.2,12.2 11.3,12.4 C11.4,12.6 11.4,12.7 11.4,12.9 L11.4,13.2 C11.4,13.2 11.3,13.4 11.3,13.5 C11.3,13.6 11.2,13.7 11.1,13.7 C11,13.7 10.9,13.8 10.8,13.9 C11,14 11.2,14.1 11.3,14.3 C11.4,14.5 11.5,14.7 11.5,14.9 C11.5,15.1 11.5,15.3 11.4,15.4 C11.3,15.5 11.2,15.7 11.1,15.8 C11,15.9 10.8,16 10.6,16 C10.4,16 10.2,16.1 10,16.1 C9.8,16.1 9.6,16.1 9.5,16 C9.4,15.9 9.2,15.9 9,15.8 C8.8,15.7 8.8,15.6 8.7,15.4 C8.6,15.2 8.6,15 8.6,14.8 L9.4,14.8 L9.4,15 C9.4,15 9.5,15.1 9.5,15.2 C9.5,15.3 9.6,15.3 9.7,15.3 L10.2,15.3 C10.2,15.3 10.3,15.2 10.4,15.2 C10.5,15.2 10.5,15.1 10.5,15 L10.5,14.5 C10.5,14.5 10.4,14.4 10.4,14.3 C10.4,14.2 10.3,14.2 10.2,14.2 L9.6,14.2 L9.6,13.5 Z M15.3,14.2 C15.3,14.5 15.3,14.8 15.2,15 L14.9,15.6 C14.9,15.6 14.6,15.9 14.4,15.9 C14.2,15.9 14,16 13.8,16 C13.6,16 13.4,16 13.2,15.9 C13,15.8 12.9,15.7 12.7,15.6 C12.5,15.5 12.5,15.3 12.4,15 C12.3,14.7 12.3,14.5 12.3,14.2 L12.3,13.5 C12.3,13.2 12.3,12.9 12.4,12.7 L12.7,12.1 C12.7,12.1 13,11.8 13.2,11.8 C13.4,11.8 13.6,11.7 13.8,11.7 C14,11.7 14.2,11.7 14.4,11.8 C14.6,11.9 14.7,12 14.9,12.1 C15.1,12.2 15.1,12.4 15.2,12.7 C15.3,13 15.3,13.2 15.3,13.5 L15.3,14.2 Z M14.5,13.4 L14.5,12.9 C14.5,12.8 14.4,12.7 14.4,12.6 C14.4,12.5 14.3,12.5 14.2,12.4 C14.1,12.3 14,12.3 13.9,12.3 C13.8,12.3 13.7,12.3 13.6,12.4 L13.4,12.6 C13.4,12.6 13.3,12.8 13.3,12.9 L13.3,14.9 C13.3,14.9 13.4,15.1 13.4,15.2 C13.4,15.3 13.5,15.3 13.6,15.4 C13.7,15.5 13.8,15.5 13.9,15.5 C14,15.5 14.1,15.5 14.2,15.4 L14.4,15.2 C14.4,15.2 14.5,15 14.5,14.9 L14.5,13.4 Z" id="Shape" fill="#79909B" fill-rule="nonzero"></path>
    </g>
</svg>