<?xml version="1.0" encoding="UTF-8" standalone="no"?>
<svg width="24px" height="24px" viewBox="0 0 24 24" version="1.1" xmlns="http://www.w3.org/2000/svg" xmlns:xlink="http://www.w3.org/1999/xlink">
    <!-- Generator: Sketch 49.1 (51147) - http://www.bohemiancoding.com/sketch -->
    <title>ic_volume_up_black_24px</title>
    <desc>Created with Sketch.</desc>
    <defs></defs>
    <g id="ic_volume_up_black_24px" stroke="none" stroke-width="1" fill="none" fill-rule="evenodd">
        <path d="M3,8.77 L3,14.77 L7,14.77 L12,19.77 L12,3.77 L7,8.77 L3,8.77 Z M16.5,11.77 C16.5,10 15.48,8.48 14,7.74 L14,15.79 C15.48,15.06 16.5,13.54 16.5,11.77 Z M14,3 L14,5.06 C16.89,5.92 19,8.6 19,11.77 C19,14.94 16.89,17.62 14,18.48 L14,20.54 C18.01,19.63 21,16.05 21,11.77 C21,7.49 18.01,3.91 14,3 Z" id="Shape" fill="#000000" fill-rule="nonzero"></path>
    </g>
</svg>