<?xml version="1.0" encoding="UTF-8" standalone="no"?>
<svg width="35px" height="35px" viewBox="0 0 35 35" version="1.1" xmlns="http://www.w3.org/2000/svg" xmlns:xlink="http://www.w3.org/1999/xlink">
    <!-- Generator: Sketch 49.1 (51147) - http://www.bohemiancoding.com/sketch -->
    <title>ic_phone_white_35px</title>
    <desc>Created with Sketch.</desc>
    <defs></defs>
    <g id="ic_phone_white_35px" stroke="none" stroke-width="1" fill="none" fill-rule="evenodd">
        <path d="M12.62,16.79 C14.06,19.62 16.38,21.93 19.21,23.38 L21.41,21.18 C21.68,20.91 22.08,20.82 22.43,20.94 C23.55,21.31 24.76,21.51 26,21.51 C26.55,21.51 27,21.96 27,22.51 L27,26 C27,26.55 26.55,27 26,27 C16.61,27 9,19.39 9,10 C9,9.45 9.45,9 10,9 L13.5,9 C14.05,9 14.5,9.45 14.5,10 C14.5,11.25 14.7,12.45 15.07,13.57 C15.18,13.92 15.1,14.31 14.82,14.59 L12.62,16.79 Z" id="Shape" fill="#FFFFFF" fill-rule="nonzero"></path>
    </g>
</svg>