<?xml version="1.0" encoding="UTF-8" standalone="no"?>
<svg width="24px" height="24px" viewBox="0 0 24 24" version="1.1" xmlns="http://www.w3.org/2000/svg" xmlns:xlink="http://www.w3.org/1999/xlink">
    <!-- Generator: Sketch 49.1 (51147) - http://www.bohemiancoding.com/sketch -->
    <title>ic_phone_hold_active_24px</title>
    <desc>Created with Sketch.</desc>
    <defs></defs>
    <g id="ic_phone_hold_active_24px" stroke="none" stroke-width="1" fill="none" fill-rule="evenodd">
        <path d="M15.25,9.33333333 L16.4166667,9.33333333 L16.4166667,4.66666667 L15.25,4.66666667 L15.25,9.33333333 Z M17,1.16666667 C13.78,1.16666667 11.1666667,3.78 11.1666667,7 C11.1666667,10.22 13.78,12.8333333 17,12.8333333 C20.22,12.8333333 22.8333333,10.22 22.8333333,7 C22.8333333,3.78 20.22,1.16666667 17,1.16666667 Z M17,11.6666667 C14.4275,11.6666667 12.3333333,9.5725 12.3333333,7 C12.3333333,4.4275 14.4275,2.33333333 17,2.33333333 C19.5725,2.33333333 21.6666667,4.4275 21.6666667,7 C21.6666667,9.5725 19.5725,11.6666667 17,11.6666667 Z M17.5833333,9.33333333 L18.75,9.33333333 L18.75,4.66666667 L17.5833333,4.66666667 L17.5833333,9.33333333 Z" id="Shape" fill="#2E3034" fill-rule="nonzero"></path>
        <path d="M4.62,12.79 C6.06,15.62 8.38,17.93 11.21,19.38 L13.41,17.18 C13.68,16.91 14.08,16.82 14.43,16.94 C15.55,17.31 16.76,17.51 18,17.51 C18.55,17.51 19,17.96 19,18.51 L19,22 C19,22.55 18.55,23 18,23 C8.61,23 1,15.39 1,6 C1,5.45 1.45,5 2,5 L5.5,5 C6.05,5 6.5,5.45 6.5,6 C6.5,7.25 6.7,8.45 7.07,9.57 C7.18,9.92 7.1,10.31 6.82,10.59 L4.62,12.79 Z" id="Shape" fill="#2E3034" fill-rule="nonzero"></path>
    </g>
</svg>