<?xml version="1.0" encoding="UTF-8" standalone="no"?>
<svg width="24px" height="24px" viewBox="0 0 24 24" version="1.1" xmlns="http://www.w3.org/2000/svg" xmlns:xlink="http://www.w3.org/1999/xlink">
    <!-- Generator: Sketch 49.1 (51147) - http://www.bohemiancoding.com/sketch -->
    <title>ic_phone_secure_inactive_24px</title>
    <desc>Created with Sketch.</desc>
    <defs></defs>
    <g id="ic_phone_secure_inactive_24px" stroke="none" stroke-width="1" fill="none" fill-rule="evenodd">
        <path d="M9.05632785,10.2317593 L14.6730026,15.8484341 C14.0442055,16.2460463 13.2989793,16.4761905 12.5,16.4761905 C10.2514121,16.4761905 8.42857143,14.6533498 8.42857143,12.4047619 C8.42857143,11.6057826 8.65871562,10.8605564 9.05632785,10.2317593 Z M11.2063155,8.54316727 C11.6127452,8.40706656 12.0477619,8.33333333 12.5,8.33333333 C14.7485879,8.33333333 16.5714286,10.156174 16.5714286,12.4047619 C16.5714286,12.857 16.4976953,13.2920167 16.3615946,13.6984465 L11.2063155,8.54316727 Z" id="Combined-Shape" fill="#6F6F6F"></path>
        <path d="M15.3007945,17.5772272 L16.6219895,18.8984222 C15.4306136,19.6562542 14.0165719,20.0952381 12.5,20.0952381 C8.25266728,20.0952381 4.80952381,16.6520946 4.80952381,12.4047619 C4.80952381,10.88819 5.24850768,9.47414829 6.00633973,8.28277242 L7.32753475,9.60396744 C6.87567893,10.4366883 6.61904762,11.3907554 6.61904762,12.4047619 C6.61904762,15.6527222 9.25203969,18.2857143 12.5,18.2857143 C13.5140065,18.2857143 14.4680736,18.029083 15.3007945,17.5772272 Z M17.3270935,15.7649465 C17.9913829,14.8124402 18.3809524,13.6540955 18.3809524,12.4047619 C18.3809524,9.15680159 15.7479603,6.52380952 12.5,6.52380952 C11.2506664,6.52380952 10.0923217,6.91337901 9.13981539,7.57766841 L7.84486231,6.28271533 C9.13711414,5.29859015 10.7503213,4.71428571 12.5,4.71428571 C16.7473327,4.71428571 20.1904762,8.15742919 20.1904762,12.4047619 C20.1904762,14.1544406 19.6061718,15.7676478 18.6220466,17.0598996 L17.3270935,15.7649465 Z" id="Combined-Shape" fill="#6F6F6F"></path>
        <rect id="Rectangle-30" fill="#6F6F6F" transform="translate(11.316923, 13.031208) rotate(-45.000000) translate(-11.316923, -13.031208) " x="10.4121607" y="2.17406547" width="1.80952381" height="21.7142857"></rect>
    </g>
</svg>