<?xml version="1.0" encoding="UTF-8" standalone="no"?>
<svg width="24px" height="24px" viewBox="0 0 24 24" version="1.1" xmlns="http://www.w3.org/2000/svg" xmlns:xlink="http://www.w3.org/1999/xlink">
    <!-- Generator: Sketch 49.1 (51147) - http://www.bohemiancoding.com/sketch -->
    <title>ic_transfer_inactive_24px</title>
    <desc>Created with Sketch.</desc>
    <defs></defs>
    <g id="ic_transfer_inactive_24px" stroke="none" stroke-width="1" fill="none" fill-rule="evenodd">
        <path d="M6.00667331,10.8559041 C7.33590408,13.4682118 9.47744254,15.6005195 12.0897502,16.938981 L14.1205195,14.9082118 C14.3697502,14.658981 14.738981,14.5759041 15.0620579,14.6866733 C16.0959041,15.0282118 17.2128272,15.2128272 18.3574425,15.2128272 C18.8651348,15.2128272 19.2805195,15.6282118 19.2805195,16.1359041 L19.2805195,19.3574425 C19.2805195,19.8651348 18.8651348,20.2805195 18.3574425,20.2805195 C9.68975023,20.2805195 2.66513484,13.2559041 2.66513484,4.58821177 C2.66513484,4.08051946 3.08051946,3.66513484 3.58821177,3.66513484 L6.818981,3.66513484 C7.32667331,3.66513484 7.74205792,4.08051946 7.74205792,4.58821177 C7.74205792,5.74205792 7.92667331,6.84975023 8.26821177,7.88359638 C8.36975023,8.20667331 8.29590408,8.56667331 8.03744254,8.82513484 L6.00667331,10.8559041 Z" id="Shape" fill="#6F6F6F" fill-rule="nonzero" transform="translate(10.972827, 11.972827) rotate(-315.000000) translate(-10.972827, -11.972827) "></path>
        <polygon id="Shape" fill="#6F6F6F" fill-rule="nonzero" transform="translate(15.615385, 12.000000) rotate(-90.000000) translate(-15.615385, -12.000000) " points="16.8846154 13.6472727 16.8846154 6 14.3461538 6 14.3461538 13.6472727 10.5384615 13.6472727 15.6153846 18 20.6923077 13.6472727 16.8846154 13.6472727"></polygon>
    </g>
</svg>