<?xml version="1.0" encoding="UTF-8" standalone="no"?>
<svg width="24px" height="24px" viewBox="0 0 24 24" version="1.1" xmlns="http://www.w3.org/2000/svg" xmlns:xlink="http://www.w3.org/1999/xlink">
    <!-- Generator: Sketch 49.1 (51147) - http://www.bohemiancoding.com/sketch -->
    <title>ic_forward_10_black_24px</title>
    <desc>Created with Sketch.</desc>
    <defs></defs>
    <g id="ic_forward_10_black_24px" stroke="none" stroke-width="1" fill="none" fill-rule="evenodd">
        <path d="M4,14 C4,18.4 7.6,22 12,22 C16.4,22 20,18.4 20,14 L18,14 C18,17.3 15.3,20 12,20 C8.7,20 6,17.3 6,14 C6,10.7 8.7,8 12,8 L12,12 L17,7 L12,2 L12,6 C7.6,6 4,9.6 4,14 Z M10.8,17 L10,17 L10,13.7 L9,14 L9,13.3 L10.8,12.7 L10.9,12.7 L10.9,17 L10.8,17 Z M15.1,15.2 C15.1,15.5 15.1,15.8 15,16 L14.7,16.6 C14.7,16.6 14.4,16.9 14.2,16.9 C14,16.9 13.8,17 13.6,17 C13.4,17 13.2,17 13,16.9 C12.8,16.8 12.7,16.7 12.5,16.6 C12.3,16.5 12.3,16.3 12.2,16 C12.1,15.7 12.1,15.5 12.1,15.2 L12.1,14.5 C12.1,14.2 12.1,13.9 12.2,13.7 L12.5,13.1 C12.5,13.1 12.8,12.8 13,12.8 C13.2,12.8 13.4,12.7 13.6,12.7 C13.8,12.7 14,12.7 14.2,12.8 C14.4,12.9 14.5,13 14.7,13.1 C14.9,13.2 14.9,13.4 15,13.7 C15.1,14 15.1,14.2 15.1,14.5 L15.1,15.2 Z M14.3,14.4 L14.3,13.9 C14.3,13.9 14.2,13.7 14.2,13.6 C14.2,13.5 14.1,13.5 14,13.4 C13.9,13.3 13.8,13.3 13.7,13.3 C13.6,13.3 13.5,13.3 13.4,13.4 L13.2,13.6 C13.2,13.6 13.1,13.8 13.1,13.9 L13.1,15.9 C13.1,15.9 13.2,16.1 13.2,16.2 C13.2,16.3 13.3,16.3 13.4,16.4 C13.5,16.5 13.6,16.5 13.7,16.5 C13.8,16.5 13.9,16.5 14,16.4 L14.2,16.2 C14.2,16.2 14.3,16 14.3,15.9 L14.3,14.4 Z" id="Shape" fill="#79909B" fill-rule="nonzero"></path>
    </g>
</svg>