<?xml version="1.0" encoding="UTF-8" standalone="no"?>
<svg width="24px" height="24px" viewBox="0 0 24 24" version="1.1" xmlns="http://www.w3.org/2000/svg" xmlns:xlink="http://www.w3.org/1999/xlink">
    <!-- Generator: Sketch 49.1 (51147) - http://www.bohemiancoding.com/sketch -->
    <title>ic_forward_5_black_24px</title>
    <desc>Created with Sketch.</desc>
    <defs></defs>
    <g id="ic_forward_5_black_24px" stroke="none" stroke-width="1" fill="none" fill-rule="evenodd">
        <path d="M4,14 C4,18.4 7.6,22 12,22 C16.4,22 20,18.4 20,14 L18,14 C18,17.3 15.3,20 12,20 C8.7,20 6,17.3 6,14 C6,10.7 8.7,8 12,8 L12,12 L17,7 L12,2 L12,6 C7.6,6 4,9.6 4,14 Z M10.7,14.9 L10.9,12.7 L13.3,12.7 L13.3,13.4 L11.6,13.4 L11.5,14.3 C11.5,14.3 11.6,14.3 11.6,14.2 C11.6,14.1 11.7,14.2 11.7,14.1 C11.7,14 11.8,14.1 11.9,14.1 L12.1,14.1 C12.3,14.1 12.5,14.1 12.6,14.2 C12.7,14.3 12.9,14.4 13,14.5 C13.1,14.6 13.2,14.8 13.3,15 C13.4,15.2 13.4,15.4 13.4,15.6 C13.4,15.8 13.4,16 13.3,16.1 C13.2,16.2 13.2,16.4 13,16.6 C12.8,16.8 12.7,16.8 12.5,16.9 C12.3,17 12.1,17 11.9,17 C11.7,17 11.5,17 11.4,16.9 C11.3,16.8 11.1,16.8 10.9,16.7 C10.7,16.6 10.7,16.5 10.6,16.3 C10.5,16.1 10.5,16 10.5,15.8 L11.3,15.8 C11.3,16 11.4,16.1 11.5,16.2 C11.6,16.3 11.7,16.3 11.9,16.3 C12,16.3 12.1,16.3 12.2,16.2 L12.4,16 C12.4,16 12.5,15.8 12.5,15.7 L12.5,15.1 L12.4,14.9 L12.2,14.7 C12.2,14.7 12,14.6 11.9,14.6 L11.7,14.6 C11.7,14.6 11.6,14.6 11.5,14.7 C11.4,14.8 11.4,14.7 11.4,14.8 C11.4,14.9 11.3,14.9 11.3,14.9 L10.7,14.9 Z" id="Shape" fill="#79909B" fill-rule="nonzero"></path>
    </g>
</svg>