<?xml version="1.0" encoding="UTF-8" standalone="no"?>
<svg width="24px" height="24px" viewBox="0 0 24 24" version="1.1" xmlns="http://www.w3.org/2000/svg" xmlns:xlink="http://www.w3.org/1999/xlink">
    <!-- Generator: Sketch 49.1 (51147) - http://www.bohemiancoding.com/sketch -->
    <title>ic_replay_10_black_24px</title>
    <desc>Created with Sketch.</desc>
    <defs></defs>
    <g id="ic_replay_10_black_24px" stroke="none" stroke-width="1" fill="none" fill-rule="evenodd">
        <path d="M12,6 L12,2 L7,7 L12,12 L12,8 C15.3,8 18,10.7 18,14 C18,17.3 15.3,20 12,20 C8.7,20 6,17.3 6,14 L4,14 C4,18.4 7.6,22 12,22 C16.4,22 20,18.4 20,14 C20,9.6 16.4,6 12,6 Z M10.9,17 L10,17 L10,13.7 L9,14 L9,13.3 L10.8,12.7 L10.9,12.7 L10.9,17 Z M15.2,15.2 C15.2,15.5 15.2,15.8 15.1,16 L14.8,16.6 C14.8,16.6 14.5,16.9 14.3,16.9 C14.1,16.9 13.9,17 13.7,17 C13.5,17 13.3,17 13.1,16.9 C12.9,16.8 12.8,16.7 12.6,16.6 C12.4,16.5 12.4,16.3 12.3,16 C12.2,15.7 12.2,15.5 12.2,15.2 L12.2,14.5 C12.2,14.2 12.2,13.9 12.3,13.7 L12.6,13.1 C12.6,13.1 12.9,12.8 13.1,12.8 C13.3,12.8 13.5,12.7 13.7,12.7 C13.9,12.7 14.1,12.7 14.3,12.8 C14.5,12.9 14.6,13 14.8,13.1 C15,13.2 15,13.4 15.1,13.7 C15.2,14 15.2,14.2 15.2,14.5 L15.2,15.2 Z M14.3,14.4 L14.3,13.9 C14.3,13.9 14.2,13.7 14.2,13.6 C14.2,13.5 14.1,13.5 14,13.4 C13.9,13.3 13.8,13.3 13.7,13.3 C13.6,13.3 13.5,13.3 13.4,13.4 L13.2,13.6 C13.2,13.6 13.1,13.8 13.1,13.9 L13.1,15.9 C13.1,15.9 13.2,16.1 13.2,16.2 C13.2,16.3 13.3,16.3 13.4,16.4 C13.5,16.5 13.6,16.5 13.7,16.5 C13.8,16.5 13.9,16.5 14,16.4 L14.2,16.2 C14.2,16.2 14.3,16 14.3,15.9 L14.3,14.4 Z" id="Shape" fill="#79909B" fill-rule="nonzero"></path>
    </g>
</svg>