<?xml version="1.0" encoding="UTF-8" standalone="no"?>
<svg width="30px" height="30px" viewBox="0 0 30 30" version="1.1" xmlns="http://www.w3.org/2000/svg" xmlns:xlink="http://www.w3.org/1999/xlink">
    <!-- Generator: Sketch 49.1 (51147) - http://www.bohemiancoding.com/sketch -->
    <title>ic_call_voicemail_recording_30px</title>
    <desc>Created with Sketch.</desc>
    <defs></defs>
    <g id="ic_call_voicemail_recording_30px" stroke="none" stroke-width="1" fill="none" fill-rule="evenodd">
        <path d="M21.5,10 C18.46,10 16,12.46 16,15.5 C16,16.83 16.47,18.05 17.26,19 L12.74,19 C13.53,18.05 14,16.83 14,15.5 C14,12.46 11.54,10 8.5,10 C5.46,10 3,12.46 3,15.5 C3,18.54 5.46,21 8.5,21 L21.5,21 C24.54,21 27,18.54 27,15.5 C27,12.46 24.54,10 21.5,10 Z M8.5,19 C6.57,19 5,17.43 5,15.5 C5,13.57 6.57,12 8.5,12 C10.43,12 12,13.57 12,15.5 C12,17.43 10.43,19 8.5,19 Z M21.5,19 C19.57,19 18,17.43 18,15.5 C18,13.57 19.57,12 21.5,12 C23.43,12 25,13.57 25,15.5 C25,17.43 23.43,19 21.5,19 Z" id="Shape" fill="#FBD433" fill-rule="nonzero"></path>
    </g>
</svg>