<?xml version="1.0" encoding="UTF-8" standalone="no"?>
<svg width="30px" height="30px" viewBox="0 0 30 30" version="1.1" xmlns="http://www.w3.org/2000/svg" xmlns:xlink="http://www.w3.org/1999/xlink">
    <!-- Generator: Sketch 49.1 (51147) - http://www.bohemiancoding.com/sketch -->
    <title>ic_call_incoming_30px</title>
    <desc>Created with Sketch.</desc>
    <defs></defs>
    <g id="ic_call_incoming_30px" stroke="none" stroke-width="1" fill="none" fill-rule="evenodd">
        <path d="M7.62,16.79 C9.06,19.62 11.38,21.93 14.21,23.38 L16.41,21.18 C16.68,20.91 17.08,20.82 17.43,20.94 C18.55,21.31 19.76,21.51 21,21.51 C21.55,21.51 22,21.96 22,22.51 L22,26 C22,26.55 21.55,27 21,27 C11.61,27 4,19.39 4,10 C4,9.45 4.45,9 5,9 L8.5,9 C9.05,9 9.5,9.45 9.5,10 C9.5,11.25 9.7,12.45 10.07,13.57 C10.18,13.92 10.1,14.31 9.82,14.59 L7.62,16.79 Z" id="Shape" fill="#1CBAD4" fill-rule="nonzero"></path>
        <path d="M20.5,17 C16.9101491,17 14,14.0898509 14,10.5 C14,6.91014913 16.9101491,4 20.5,4 C24.0898509,4 27,6.91014913 27,10.5 C27,14.0898509 24.0898509,17 20.5,17 Z M24.0403493,8.20541729 L22.9983618,7.12640758 L18.872621,11.1105891 L17.3096397,9.49207454 L17.0452974,13.9178378 L21.4775899,13.8081133 L19.9146086,12.1895988 L24.0403493,8.20541729 Z" id="Combined-Shape" fill="#1CBAD4"></path>
    </g>
</svg>