<?xml version="1.0" encoding="UTF-8" standalone="no"?>
<svg width="30px" height="30px" viewBox="0 0 30 30" version="1.1" xmlns="http://www.w3.org/2000/svg" xmlns:xlink="http://www.w3.org/1999/xlink">
    <!-- Generator: Sketch 49.1 (51147) - http://www.bohemiancoding.com/sketch -->
    <title>ic_call_fail_3-px</title>
    <desc>Created with Sketch.</desc>
    <defs></defs>
    <g id="ic_call_fail_3-px" stroke="none" stroke-width="1" fill="none" fill-rule="evenodd">
        <path d="M19.6912021,10.6912021 L19.6912021,6.6912021 L18.6912021,6.6912021 L18.6912021,10.6912021 L14.6912021,10.6912021 L14.6912021,11.6912021 L18.6912021,11.6912021 L18.6912021,15.6912021 L19.6912021,15.6912021 L19.6912021,11.6912021 L23.6912021,11.6912021 L23.6912021,10.6912021 L19.6912021,10.6912021 Z M15.0130826,6.21191322 C17.7630679,3.90440156 21.8629793,4.26309732 24.170491,7.01308264 C26.4780026,9.76306795 26.1193069,13.8629793 23.3693216,16.170491 C20.6193362,18.4780026 16.5194249,18.1193069 14.2119132,15.3693216 C11.9044016,12.6193362 12.2630973,8.51942488 15.0130826,6.21191322 Z" id="Combined-Shape" fill="#EE634C" transform="translate(19.191202, 11.191202) rotate(-46.000000) translate(-19.191202, -11.191202) "></path>
        <path d="M5.62,17.79 C7.06,20.62 9.38,22.93 12.21,24.38 L14.41,22.18 C14.68,21.91 15.08,21.82 15.43,21.94 C16.55,22.31 17.76,22.51 19,22.51 C19.55,22.51 20,22.96 20,23.51 L20,27 C20,27.55 19.55,28 19,28 C9.61,28 2,20.39 2,11 C2,10.45 2.45,10 3,10 L6.5,10 C7.05,10 7.5,10.45 7.5,11 C7.5,12.25 7.7,13.45 8.07,14.57 C8.18,14.92 8.1,15.31 7.82,15.59 L5.62,17.79 Z" id="Shape" fill="#EE634C" fill-rule="nonzero"></path>
    </g>
</svg>