<?xml version="1.0" encoding="UTF-8" standalone="no"?>
<svg width="30px" height="30px" viewBox="0 0 30 30" version="1.1" xmlns="http://www.w3.org/2000/svg" xmlns:xlink="http://www.w3.org/1999/xlink">
    <!-- Generator: Sketch 49.1 (51147) - http://www.bohemiancoding.com/sketch -->
    <title>ic_call_transfer_30px</title>
    <desc>Created with Sketch.</desc>
    <defs></defs>
    <g id="ic_call_transfer_30px" stroke="none" stroke-width="1" fill="none" fill-rule="evenodd">
        <path d="M9.62,10.79 C11.06,13.62 13.38,15.93 16.21,17.38 L18.41,15.18 C18.68,14.91 19.08,14.82 19.43,14.94 C20.55,15.31 21.76,15.51 23,15.51 C23.55,15.51 24,15.96 24,16.51 L24,20 C24,20.55 23.55,21 23,21 C13.61,21 6,13.39 6,4 C6,3.45 6.45,3 7,3 L10.5,3 C11.05,3 11.5,3.45 11.5,4 C11.5,5.25 11.7,6.45 12.07,7.57 C12.18,7.92 12.1,8.31 11.82,8.59 L9.62,10.79 Z" id="Shape" fill="#B98EF8" fill-rule="nonzero" transform="translate(15.000000, 12.000000) rotate(-225.000000) translate(-15.000000, -12.000000) "></path>
        <polygon id="Shape" fill="#B98EF8" fill-rule="nonzero" points="16 22.01 16 15 14 15 14 22.01 11 22.01 15 26 19 22.01 16 22.01"></polygon>
    </g>
</svg>