<?xml version="1.0" encoding="UTF-8" standalone="no"?>
<svg width="24px" height="24px" viewBox="0 0 24 24" version="1.1" xmlns="http://www.w3.org/2000/svg" xmlns:xlink="http://www.w3.org/1999/xlink">
    <!-- Generator: Sketch 49.1 (51147) - http://www.bohemiancoding.com/sketch -->
    <title>ic_transfer_active_24px</title>
    <desc>Created with Sketch.</desc>
    <defs></defs>
    <g id="ic_transfer_active_24px" stroke="none" stroke-width="1" fill="none" fill-rule="evenodd">
        <path d="M7.00667331,10.8559041 C8.33590408,13.4682118 10.4774425,15.6005195 13.0897502,16.938981 L15.1205195,14.9082118 C15.3697502,14.658981 15.738981,14.5759041 16.0620579,14.6866733 C17.0959041,15.0282118 18.2128272,15.2128272 19.3574425,15.2128272 C19.8651348,15.2128272 20.2805195,15.6282118 20.2805195,16.1359041 L20.2805195,19.3574425 C20.2805195,19.8651348 19.8651348,20.2805195 19.3574425,20.2805195 C10.6897502,20.2805195 3.66513484,13.2559041 3.66513484,4.58821177 C3.66513484,4.08051946 4.08051946,3.66513484 4.58821177,3.66513484 L7.818981,3.66513484 C8.32667331,3.66513484 8.74205792,4.08051946 8.74205792,4.58821177 C8.74205792,5.74205792 8.92667331,6.84975023 9.26821177,7.88359638 C9.36975023,8.20667331 9.29590408,8.56667331 9.03744254,8.82513484 L7.00667331,10.8559041 Z" id="Shape" fill="#2E3034" fill-rule="nonzero" transform="translate(11.972827, 11.972827) rotate(-315.000000) translate(-11.972827, -11.972827) "></path>
        <polygon id="Shape" fill="#2E3034" fill-rule="nonzero" transform="translate(16.615385, 12.000000) rotate(-90.000000) translate(-16.615385, -12.000000) " points="17.8846154 13.6472727 17.8846154 6 15.3461538 6 15.3461538 13.6472727 11.5384615 13.6472727 16.6153846 18 21.6923077 13.6472727 17.8846154 13.6472727"></polygon>
    </g>
</svg>